<svg id="visual" viewBox="0 0 1600 650" width="1600" height="650" xmlns="http://www.w3.org/2000/svg" xmlns:xlink="http://www.w3.org/1999/xlink" version="1.1"><path d="M0 47L133.3 55.7C266.7 64.3 533.3 81.7 800 93.5C1066.7 105.3 1333.3 111.7 1466.7 114.8L1600 118L1600 0L1466.7 0C1333.3 0 1066.7 0 800 0C533.3 0 266.7 0 133.3 0L0 0Z" fill="#004cbb"></path><path d="M0 105L133.3 118C266.7 131 533.3 157 800 165.7C1066.7 174.3 1333.3 165.7 1466.7 161.3L1600 157L1600 116L1466.7 112.8C1333.3 109.7 1066.7 103.3 800 91.5C533.3 79.7 266.7 62.3 133.3 53.7L0 45Z" fill="#0055d1"></path><path d="M0 196L133.3 208C266.7 220 533.3 244 800 239.7C1066.7 235.3 1333.3 202.7 1466.7 186.3L1600 170L1600 155L1466.7 159.3C1333.3 163.7 1066.7 172.3 800 163.7C533.3 155 266.7 129 133.3 116L0 103Z" fill="#005de8"></path><path d="M0 469L133.3 461.5C266.7 454 533.3 439 800 416.3C1066.7 393.7 1333.3 363.3 1466.7 348.2L1600 333L1600 168L1466.7 184.3C1333.3 200.7 1066.7 233.3 800 237.7C533.3 242 266.7 218 133.3 206L0 194Z" fill="#0066ff"></path><path d="M0 534L133.3 536.2C266.7 538.3 533.3 542.7 800 522.2C1066.7 501.7 1333.3 456.3 1466.7 433.7L1600 411L1600 331L1466.7 346.2C1333.3 361.3 1066.7 391.7 800 414.3C533.3 437 266.7 452 133.3 459.5L0 467Z" fill="#2d77ff"></path><path d="M0 580L133.3 580C266.7 580 533.3 580 800 585.3C1066.7 590.7 1333.3 601.3 1466.7 606.7L1600 612L1600 409L1466.7 431.7C1333.3 454.3 1066.7 499.7 800 520.2C533.3 540.7 266.7 536.3 133.3 534.2L0 532Z" fill="#4988ff"></path><path d="M0 651L133.3 651C266.7 651 533.3 651 800 651C1066.7 651 1333.3 651 1466.7 651L1600 651L1600 610L1466.7 604.7C1333.3 599.3 1066.7 588.7 800 583.3C533.3 578 266.7 578 133.3 578L0 578Z" fill="#6198ff"></path></svg>